<svg width="24" height="20" viewBox="0 0 24 20" fill="none" xmlns="http://www.w3.org/2000/svg">
<path fill-rule="evenodd" clip-rule="evenodd" d="M12 0C6.48 0 2 4.48 2 10C2 15.52 6.48 20 12 20C17.52 20 22 15.52 22 10C22 4.48 17.52 0 12 0ZM7.07 16.28C7.5 15.38 10.12 14.5 12 14.5C13.88 14.5 16.51 15.38 16.93 16.28C15.57 17.36 13.86 18 12 18C10.14 18 8.43 17.36 7.07 16.28ZM18.36 14.83C16.93 13.09 13.46 12.5 12 12.5C10.54 12.5 7.07 13.09 5.64 14.83C4.62 13.49 4 11.82 4 10C4 5.59 7.59 2 12 2C16.41 2 20 5.59 20 10C20 11.82 19.38 13.49 18.36 14.83ZM12 4C10.06 4 8.5 5.56 8.5 7.5C8.5 9.44 10.06 11 12 11C13.94 11 15.5 9.44 15.5 7.5C15.5 5.56 13.94 4 12 4ZM12 9C11.17 9 10.5 8.33 10.5 7.5C10.5 6.67 11.17 6 12 6C12.83 6 13.5 6.67 13.5 7.5C13.5 8.33 12.83 9 12 9Z" fill="white"/>
<mask id="mask0_144_85" style="mask-type:alpha" maskUnits="userSpaceOnUse" x="2" y="4" width="20" height="20">
<path fill-rule="evenodd" clip-rule="evenodd" d="M12 4C6.48 4 2 8.48 2 14C2 19.52 6.48 24 12 24C17.52 24 22 19.52 22 14C22 8.48 17.52 4 12 4ZM7.07 20.28C7.5 19.38 10.12 18.5 12 18.5C13.88 18.5 16.51 19.38 16.93 20.28C15.57 21.36 13.86 22 12 22C10.14 22 8.43 21.36 7.07 20.28ZM18.36 18.83C16.93 17.09 13.46 16.5 12 16.5C10.54 16.5 7.07 17.09 5.64 18.83C4.62 17.49 4 15.82 4 14C4 9.59 7.59 6 12 6C16.41 6 20 9.59 20 14C20 15.82 19.38 17.49 18.36 18.83ZM12 8C10.06 8 8.5 9.56 8.5 11.5C8.5 13.44 10.06 15 12 15C13.94 15 15.5 13.44 15.5 11.5C15.5 9.56 13.94 8 12 8ZM12 13C11.17 13 10.5 12.33 10.5 11.5C10.5 10.67 11.17 10 12 10C12.83 10 13.5 10.67 13.5 11.5C13.5 12.33 12.83 13 12 13Z" fill="white"/>
</mask>
<g mask="url(#mask0_144_85)">
</g>
</svg>
